<mxfile host="app.diagrams.net" modified="2024-07-04T10:12:46.885Z" agent="Mozilla/5.0 (Windows NT 10.0; Win64; x64) AppleWebKit/537.36 (KHTML, like Gecko) Chrome/126.0.0.0 Safari/537.36" version="24.6.4" etag="OfNMm2acjWEPbUmvKQmV" type="github">
  <diagram name="หน้า-1" id="IOFhQW-D53okRrrZQMFy">
    <mxGraphModel>
      <root>
        <mxCell id="0" />
        <mxCell id="1" parent="0" />
      </root>
    </mxGraphModel>
  </diagram>
</mxfile>
